# AST/ASF file generated using VICON BodyLanguage
# -----------------------------------------------
:version 1.10
:name VICON
:units
  mass 1.0
  length 0.45
  angle deg
:documentation
   .ast/.asf automatically generated from VICON data using
   VICON BodyBuilder and BodyLanguage model FoxedUp or BRILLIANT.MOD
:root
   order TX TY TZ RX RY RZ
   axis XYZ
   position 0 0 0  
   orientation 0 0 0 
:bonedata
  begin
     id 1 
     name lhipjoint
     direction 0.630082 -0.636569 0.44472 
     length 2.82754 
     axis 0 0 0  XYZ
  end
  begin
     id 2 
     name lfemur
     direction 0.34202 -0.939693 0  
     length 7.26371  
     axis 0 0 20  XYZ
    dof rx ry rz
    limits (-160.0 20.0)
           (-70.0 70.0)
           (-60.0 70.0)
  end
  begin
     id 3 
     name ltibia
     direction 0.34202 -0.939693 0   
     length 7.88616   
     axis 0 0 20   XYZ
    dof rx
    limits (-10.0 170.0)
  end
  begin
     id 4 
     name lfoot
     direction 0.0603448 -0.165796 0.984312   
     length 1.77861   
     axis -90 7.62852e-016 20   XYZ
    dof rx rz
    limits (-45.0 90.0)
           (-70.0 20.0)
  end
  begin
     id 5 
     name ltoes
     direction 1.53577e-011 -4.21876e-011 1   
     length 0.902235   
     axis -90 7.62852e-016 20   XYZ
    dof rx
    limits (-90.0 20.0)
  end
  begin
     id 6 
     name rhipjoint
     direction -0.656778 -0.61817 0.431866   
     length 2.9117  
     axis 0 0 0  XYZ 
  end
  begin
     id 7 
     name rfemur
     direction -0.34202 -0.939693 0   
     length 6.81603   
     axis 0 0 -20   XYZ
    dof rx ry rz
    limits (-160.0 20.0)
           (-70.0 70.0)
           (-70.0 60.0)
  end
  begin
     id 8 
     name rtibia
     direction -0.34202 -0.939693 0   
     length 8.05997   
     axis 0 0 -20   XYZ
    dof rx
    limits (-10.0 170.0)
 end
 begin
     id 9 
     name rfoot
     direction -0.0862404 -0.236944 0.967688   
     length 1.84899  
     axis -90 -7.62852e-016 -20   XYZ
    dof rx rz
    limits (-45.0 90.0)
           (-20.0 70.0)
  end
  begin
     id 10 
     name rtoes
     direction -1.53561e-011 -4.21798e-011 1   
     length 0.931579   
     axis -90 -7.62852e-016 -20   XYZ
    dof rx
    limits (-90.0 20.0)
  end
  begin
     id 11 
     name lowerback
     direction -0.0110203 0.991769 -0.127564   
     length 2.05686   
     axis 0 0 0   XYZ
    dof rx ry rz
    limits (-20.0 45.0)
           (-30.0 30.0)
           (-30.0 30.0)
  end
  begin
     id 12 
     name upperback
     direction 0.0109719 0.99993 -0.00432479   
     length 2.06234   
     axis 0 0 0   XYZ
    dof rx ry rz
    limits (-20.0 45.0)
           (-30.0 30.0)
           (-30.0 30.0)
  end
  begin
     id 13 
     name thorax
     direction 0.0173308 0.998351 0.0547306   
     length 2.09856   
     axis 0 0 0   XYZ
    dof rx ry rz
    limits (-20.0 45.0)
           (-30.0 30.0)
           (-30.0 30.0)
  end
  begin
     id 14 
     name lowerneck
     direction -0.0311736 0.989033 0.144366   
     length 1.98151   
     axis 0 0 0   XYZ
    dof rx ry rz
    limits (-20.0 45.0)
           (-30.0 30.0)
           (-30.0 30.0)
  end
  begin
     id 15 
     name upperneck
     direction 0.0421057 0.975772 -0.214698   
     length 2.01457   
     axis 0 0 0   XYZ
    dof rx ry rz
    limits (-20.0 45.0)
           (-30.0 30.0)
           (-30.0 30.0)
  end
  begin
     id 16
     name head
     direction 0.0136911 0.995958 -0.0887718  
     length 2.03562  
     axis 0 0 0   XYZ
    dof rx ry rz
    limits (-20.0 45.0)
           (-30.0 30.0)
           (-30.0 30.0)
  end
  begin
     id 17 
     name lclavicle
     direction 0.915335 0.396201 0.0720134  
     length 4.16217  
     axis 0 0 0   XYZ
    dof ry rz
    limits (-20.0 10.0)
           (0.0 20.0)
  end
  begin
     id 18 
     name lhumerus
     direction 1 -4.48965e-011 6.383e-018   
     length 4.93042   
     axis -180 -30 -90   XYZ
    dof rx ry rz
    limits (-60.0 90.0)
           (-90.0 90.0)
           (-90.0 90.0)
  end
  begin
     id 19
     name lradius
     direction 1 -4.48972e-011 8.8689e-027   
     length 3.68177   
     axis -180 -30 -90   XYZ
    dof rx
    limits (-10.0 170.0)
  end
  begin
     id 20
     name lwrist
     direction 1 -4.48953e-011 1.17971e-026   
     length 1.84089   
     axis -7.69454e-015 90 90   XYZ
    dof ry
    limits (-180.0 0.0)
 end
  begin
     id 21 
     name lhand
     direction 1 -4.49027e-011 2.35802e-026   
     length 0.721479   
     axis -1.50533e-014 90 90   XYZ
    dof rx rz
    limits (-90.0 90.0)
           (-45.0 45.0)
  end
  begin
     id 22 
     name lfingers
     direction 1 -4.48915e-011 4.72027e-026   
     length 0.581675   
     axis -3.01059e-014 90 90   XYZ
    dof rx
    limits (0.0 90.0)
  end
  begin
     id 23
     name lthumb
     direction 0.707107 -6.34948e-011 0.707107   
     length 0.835172   
     axis -90 45 -5.12164e-014   XYZ
    dof rx rz
    limits (-45.0 45.0)
           (-45.0 45.0)
  end
  begin
     id 24 
     name rclavicle
     direction -0.882781 0.469197 0.0234974   
     length 3.95647  
     axis 0 0 0   XYZ 
    dof ry rz
    limits (-10.0 20.0)
           (-20.0 0.0)
  end
  begin
     id 25 
     name rhumerus
     direction -1 -4.48965e-011 -1.54906e-018  
     length 5.07905   
     axis -180 30 90   XYZ
    dof rx ry rz
    limits (-90.0 60.0)
           (-90.0 90.0)
           (-90.0 90.0)
  end
  begin
     id 26 
     name rradius
     direction -1 -4.48972e-011 5.47489e-027   
     length 3.54394   
     axis -180 30 90   XYZ
    dof rx
    limits (-10.0 170.0)
  end
  begin
     id 27 
     name rwrist
     direction -1 -4.48955e-011 1.17969e-026   
     length 1.77197   
     axis -7.69454e-015 -90 -90   XYZ
    dof ry
    limits (-180.0 0.0)
  end
  begin
     id 28
     name rhand
     direction -1 -4.48982e-011 2.35888e-026   
     length 0.681156   
     axis -1.50533e-014 -90 -90   XYZ
    dof rx rz
    limits (-90.0 90.0)
           (-45.0 45.0)
  end
  begin
     id 29
     name rfingers
     direction -1 -4.48955e-011 4.71877e-026   
     length 0.549165   
     axis -3.01059e-014 -90 -90   XYZ
    dof rx
    limits (0.0 90.0)
  end
  begin
     id 30
     name rthumb
     direction -0.707107 -6.3491e-011 0.707107   
     length 0.788495   
     axis -90 -45 5.12164e-014   XYZ
    dof rx rz
    limits (-45.0 45.0)
           (-45.0 45.0)
  end
:hierarchy
  begin
    root lhipjoint rhipjoint lowerback
    lhipjoint lfemur
    lfemur ltibia
    ltibia lfoot
    lfoot ltoes
    rhipjoint rfemur
    rfemur rtibia
    rtibia rfoot
    rfoot rtoes
    lowerback upperback
    upperback thorax
    thorax lowerneck lclavicle rclavicle
    lowerneck upperneck
    upperneck head
    lclavicle lhumerus
    lhumerus lradius
    lradius lwrist
    lwrist lhand lthumb
    lhand lfingers
    rclavicle rhumerus
    rhumerus rradius
    rradius rwrist
    rwrist rhand rthumb
    rhand rfingers
  end

#!OML:ASF H:\Bending\Project 1\Capture day 1\Session 1\Subject.ASF
:FULLY-SPECIFIED
:DEGREES
79
root -9.66753 17.9326 -17.156 34.8553 84.4607 26.5548
lowerback 15.1157 0.820375 -2.39126
upperback 0.0877992 0.714283 0.105234
thorax -8.43778 0.461368 1.30798
lowerneck -23.3414 -3.63573 -5.8706
upperneck 32.0428 -3.20413 2.22151
head 15.3001 -1.57151 1.35795
rclavicle -1.49089e-015 -1.31198e-014
rhumerus -22.7547 1.83771 -83.0768
rradius 35.5335
rwrist 12.9696
rhand -22.3245 -18.4498
rfingers 7.12502
rthumb 4.09541 -48.3902
lclavicle -1.49089e-015 -1.31198e-014
lhumerus -24.5655 -5.24447 94.3934
lradius 39.389
lwrist 21.341
lhand -31.9044 8.21521
lfingers 7.12502
lthumb -5.15644 38.1325
rfemur -18.9093 -16.3369 10.2817
rtibia 26.0749
rfoot -12.3846 -6.27672
rtoes -7.00281
lfemur -15.9583 -1.54913 -18.5638
ltibia 25.1295
lfoot -20.1646 6.80112
ltoes -35.2683
80
root -9.70667 17.9155 -17.1412 35.3686 84.6595 26.822
lowerback 15.7739 0.787171 -2.25024
upperback 0.256433 0.684386 0.0790939
thorax -8.62197 0.443586 1.20201
lowerneck -23.18 -3.72125 -6.14183
upperneck 31.6294 -3.3299 2.46401
head 15.0912 -1.62661 1.47669
rclavicle -1.56046e-014 -2.14687e-014
rhumerus -21.744 1.06366 -83.4103
rradius 35.5023
rwrist 13.6504
rhand -22.4126 -18.1949
rfingers 7.12502
rthumb 4.01031 -48.1369
lclavicle -1.56046e-014 -2.14687e-014
lhumerus -23.3535 -5.36357 94.3246
lradius 39.1489
lwrist 21.1908
lhand -32.4105 8.27102
lfingers 7.12502
lthumb -5.64506 38.1758
rfemur -20.2171 -17.8481 10.9715
rtibia 27.5121
rfoot -12.4216 -6.41768
rtoes -6.90817
lfemur -16.9623 -0.78373 -18.4268
ltibia 26.0977
lfoot -20.1487 5.7682
ltoes -34.5508
81
root -9.7469 17.8944 -17.1157 35.3822 84.933 26.5933
lowerback 16.4706 0.735102 -2.0704
upperback 0.430229 0.640596 0.0730846
thorax -8.82026 0.418413 1.09891
lowerneck -23.0053 -3.76812 -6.40233
upperneck 31.1704 -3.41647 2.7391
head 14.8598 -1.65924 1.61344
rclavicle -9.93923e-017 -4.77083e-015
rhumerus -20.7505 0.369822 -83.8268
rradius 35.4702
rwrist 14.6531
rhand -22.4066 -17.725
rfingers 7.12502
rthumb 4.01618 -47.6669
lclavicle -9.93923e-017 -4.77083e-015
lhumerus -22.0985 -5.35432 94.1862
lradius 38.8818
lwrist 21.0887
lhand -32.5672 8.3674
lfingers 7.12502
lthumb -5.7964 38.2681
rfemur -21.2736 -18.9542 11.6914
rtibia 28.5492
rfoot -12.4059 -6.83736
rtoes -7.24971
lfemur -18.0378 0.075164 -18.183
ltibia 27.1841
lfoot -20.1292 4.58652
ltoes -33.6275
82
root -9.78808 17.8688 -17.0804 35.1374 85.2732 26.0947
lowerback 17.1949 0.661128 -1.88224
upperback 0.605773 0.573478 0.0773961
thorax -9.03009 0.382413 1.00827
lowerneck -22.8202 -3.76212 -6.6
upperneck 30.6556 -3.45409 3.01917
head 14.5997 -1.66303 1.74894
rclavicle -4.47266e-015 5.76476e-015
rhumerus -19.8473 0.158366 -84.3487
rradius 35.548
rwrist 15.6921
rhand -22.5367 -17.318
rfingers 7.12502
rthumb 3.89051 -47.2622
lclavicle -4.47266e-015 5.76476e-015
lhumerus -20.837 -5.27868 93.9883
lradius 38.6615
lwrist 21.1052
lhand -32.3196 8.46792
lfingers 7.12502
lthumb -5.5573 38.3751
rfemur -22.093 -19.5757 12.382
rtibia 29.2415
rfoot -12.4554 -7.57381
rtoes -8.09722
lfemur -19.1997 1.03407 -17.8655
ltibia 28.3769
lfoot -20.0788 3.27527
ltoes -32.6925
83
root -9.82959 17.8381 -17.0365 34.9836 85.6825 25.655
lowerback 17.926 0.565844 -1.69403
upperback 0.778604 0.48202 0.0829148
thorax -9.24467 0.335235 0.926026
lowerneck -22.6311 -3.71202 -6.71351
upperneck 30.0811 -3.45551 3.28256
head 14.3111 -1.64411 1.86761
rclavicle 5.96354e-015 -5.76476e-015
rhumerus -19.076 0.640063 -84.9496
rradius 35.787
rwrist 16.5313
rhand -23.0002 -17.2631
rfingers 7.12502
rthumb 3.4429 -47.215
lclavicle 5.96354e-015 -5.76476e-015
lhumerus -19.5961 -5.20375 93.757
lradius 38.5397
lwrist 21.2345
lhand -31.7396 8.53444
lfingers 7.12502
lthumb -4.99725 38.4555
rfemur -22.7434 -19.6993 13.0074
rtibia 29.7203
rfoot -12.6593 -8.63568
rtoes -9.34095
lfemur -20.4761 2.07804 -17.5098
ltibia 29.6751
lfoot -19.9821 1.8564
ltoes -31.9149
84
root -9.87074 17.8018 -16.9859 35.1215 86.1683 25.4543
lowerback 18.6398 0.455137 -1.47981
upperback 0.94513 0.379545 0.0874386
thorax -9.45481 0.28197 0.832226
lowerneck -22.4468 -3.64571 -6.76137
upperneck 29.451 -3.44887 3.51932
head 14.001 -1.6183 1.96311
rclavicle 3.97569e-016 -1.31198e-014
rhumerus -18.4311 1.75165 -85.5644
rradius 36.1739
rwrist 17.0781
rhand -23.805 -17.7055
rfingers 7.12502
rthumb 2.66567 -47.6686
lclavicle 3.97569e-016 -1.31198e-014
lhumerus -18.3885 -5.18154 93.5331
lradius 38.5398
lwrist 21.4075
lhand -30.9918 8.54376
lfingers 7.12502
lthumb -4.27525 38.4806
rfemur -23.3502 -19.4158 13.5787
rtibia 30.1767
rfoot -13.0604 -9.94239
rtoes -10.6556
lfemur -21.9059 3.17606 -17.1347
ltibia 31.1004
lfoot -19.8474 0.353781
ltoes -31.3671
85
root -9.91131 17.7587 -16.9305 35.3529 86.7313 25.2842
lowerback 19.3214 0.339072 -1.18777
upperback 1.10464 0.291699 0.0970061
thorax -9.65373 0.232531 0.697143
lowerneck -22.2767 -3.59659 -6.79035
upperneck 28.7784 -3.46255 3.72915
head 13.6814 -1.60336 2.03845
rclavicle -2.03754e-015 -1.78906e-014
rhumerus -17.8625 3.21387 -86.1154
rradius 36.6498
rwrist 17.3863
rhand -24.7178 -18.5177
rfingers 7.12502
rthumb 1.78412 -48.49
lclavicle -2.03754e-015 -1.78906e-014
lhumerus -17.216 -5.24235 93.3624
lradius 38.6643
lwrist 21.5403
lhand -30.2725 8.49939
lfingers 7.12502
lthumb -3.58059 38.4491
rfemur -24.0733 -18.9411 14.1553
rtibia 30.8241
rfoot -13.6614 -11.2802
rtoes -11.6078
lfemur -23.5229 4.29408 -16.7357
ltibia 32.695
lfoot -19.7041 -1.2072
ltoes -31.0041
86
root -9.95166 17.7065 -16.8731 34.8645 87.3551 24.3398
lowerback 19.9755 0.22855 -0.768569
upperback 1.25972 0.246254 0.121549
thorax -9.84177 0.197975 0.495172
lowerneck -22.1283 -3.58715 -6.84976
upperneck 28.0841 -3.50963 3.91425
head 13.3654 -1.61007 2.10143
rclavicle -1.14301e-015 1.19271e-015
rhumerus -17.2951 4.68811 -86.5395
rradius 37.1414
rwrist 17.5802
rhand -25.368 -19.2907
rfingers 7.12502
rthumb 1.15611 -49.2673
lclavicle -1.14301e-015 1.19271e-015
lhumerus -16.0792 -5.39885 93.2802
lradius 38.909
lwrist 21.5889
lhand -29.7436 8.43529
lfingers 7.12502
lthumb -3.06982 38.3929
rfemur -25.0612 -18.5848 14.8179
rtibia 31.8435
rfoot -14.4333 -12.3312
rtoes -11.884
lfemur -25.3371 5.41139 -16.2969
ltibia 34.5031
lfoot -19.5888 -2.80175
ltoes -30.713
87
root -9.99253 17.6425 -16.8164 31.9032 87.9973 20.8948
lowerback 20.6275 0.131843 -0.209143
upperback 1.41453 0.260197 0.166966
thorax -10.028 0.185764 0.21926
lowerneck -22.0045 -3.61853 -6.96519
upperneck 27.3942 -3.58102 4.07239
head 13.0644 -1.63718 2.15824
rclavicle 3.8763e-015 1.25234e-014
rhumerus -16.6609 5.92961 -86.8075
rradius 37.5954
rwrist 17.7607
rhand -25.4361 -19.5131
rfingers 7.12502
rthumb 1.09039 -49.49
lclavicle 3.8763e-015 1.25234e-014
lhumerus -14.9857 -5.65552 93.298
lradius 39.2721
lwrist 21.5789
lhand -29.4938 8.40911
lfingers 7.12502
lthumb -2.82864 38.3701
rfemur -26.4024 -18.6399 15.6263
rtibia 33.3336
rfoot -15.3145 -12.8021
rtoes -11.481
lfemur -27.321 6.52837 -15.8135
ltibia 36.545
lfoot -19.5283 -4.408
ltoes -30.3845
88
root -10.0345 17.5641 -16.7625 23.1219 88.5796 11.6373
lowerback 21.3108 0.0519358 0.446236
upperback 1.57226 0.329887 0.22847
thorax -10.2258 0.195861 -0.11102
lowerneck -21.9054 -3.67068 -7.12475
upperneck 26.7364 -3.65017 4.19503
head 12.7868 -1.67238 2.20924
rclavicle -1.88845e-015 -1.53064e-014
rhumerus -15.9235 6.86344 -86.9325
rradius 37.9953
rwrist 17.9494
rhand -24.8077 -18.8827
rfingers 7.12502
rthumb 1.69734 -48.8557
lclavicle -1.88845e-015 -1.53064e-014
lhumerus -13.9495 -6.01359 93.3956
lradius 39.7512
lwrist 21.5924
lhand -29.5289 8.47962
lfingers 7.12502
lthumb -2.86254 38.4402
rfemur -28.1004 -19.2425 16.5816
rtibia 35.2904
rfoot -16.2289 -12.5816
rtoes -10.7089
lfemur -29.4139 7.66427 -15.3127
ltibia 38.7994
lfoot -19.5292 -6.00716
ltoes -29.9888
